<?xml version="1.0" encoding="utf-8"?>
<!-- Generator: Adobe Illustrator 16.0.0, SVG Export Plug-In . SVG Version: 6.00 Build 0)  -->
<!DOCTYPE svg PUBLIC "-//W3C//DTD SVG 1.1//EN" "http://www.w3.org/Graphics/SVG/1.1/DTD/svg11.dtd">
<svg version="1.1" xmlns="http://www.w3.org/2000/svg" xmlns:xlink="http://www.w3.org/1999/xlink" x="0px" y="0px" width="1458px"
	 height="1158px" viewBox="0 0 1458 1158" enable-background="new 0 0 1458 1158" xml:space="preserve">
<g id="Capa_1">
	<g>
		<g>
			<g>
				<path fill="#267D39" d="M1179.805,501.542c0.504-9.992-10.481-14.521-10.481-14.521c4.121-16.253-9.738-25.682-9.738-25.682
					l-2.729-4.155c3.207-4.159,1.158-8.081,1.158-8.081c-8.496,2.727-8.496-4.216-8.496-4.216c6.642-1.569,5.052-8.077,5.052-8.077
					c-1.195-5.031-8.97-1.744-8.97-1.744c-3.422-11.367-20.655-13.454-20.655-13.454c-2.841-4.14-13.185-8.792-13.185-8.792
					c-11.682-2.943-11.021-9.703-11.021-9.703c11.021,1.679,6.512-7.829,6.512-7.829c-6.955-6.229,3.438-9.938,3.438-9.938
					c6.411,5.135,8.637-2.088,8.637-2.088c-3.158-3.013,1.91-4.532,1.91-4.532c6.864,1.754,4.797-5.351,4.797-5.351
					c-7.082-1.854-6.869-9.724-6.869-9.724c13.109,3.942,14.914-6.273,14.914-6.273c0-3.07-12.451-4.712-14.787-4.979
					c8.897,0.551,10.205-10.917,10.205-10.917c11.692,2.995,16.332-7.832,16.332-7.832c0,4.377,8.047,8.475,8.047,8.475
					c6.688-2.018,15.611-18.852,15.611-18.852l-24.847-1.627c-3.817-4.921,6.668-6.459,6.668-6.459
					c5.119,7.604,15.66-1.837,15.66-1.837c12.435,9.224,8.99-27.986,8.99-27.986c-3.709-5.957-11.969-0.708-11.969-0.708
					c-5.121,4.421-11.49-2.515-5.279-2.998c6.19-0.446,11.037-6.384,11.037-6.384c3.43-9.296-6.043-7.066-6.043-7.066
					c-2.927,0.767-6.849,10.4-6.849,10.4c-8.489,0.553-8.262,3.764-8.262,3.764c-0.43,5.008-3.496,3.656-3.496,3.656
					c-7.062,0-1.836-6.868-1.836-6.868c14.037,0.481,10.824-9.023,10.824-9.023c-6.633-4.374-19.514,8.294-19.514,8.294
					c0.43,12.253-6.861,5.505-6.861,5.505v-1.565l-2.553-1.16l-2.072,0.446l-1.211,1.196l-1.125,1.372v3.155l-2.277,0.986
					l-2.072-0.431l-1.43-0.555c0,0-1.783-1.583-2.498-2.227c-0.766-0.692-0.213-1.587-0.213-1.587s0.555-1.908,0-2.573
					c-0.5-0.708,0-2.067,0-2.067l-1.572-2.569l-2.779-1.856l-2.711-1.104c0,0-1.926,0.234-2.354,1.355
					c-0.447,1.11-0.447,2.769-0.447,2.769l-0.961,1.639l-2.068,0.64l-2.229-2.958l5.496-6.495
					c13.535-5.513-3.267-15.732-3.267-15.732c-3.643-4.156-12.823,7.654-12.823,7.654l-4.138,0.474l-5.787,1.168l-2.764,2.23
					l-5.275,0.707l1.354-5.743c0,0-2.945-1.568-3.637-1.568c-0.699,0-5.332-1.874-5.332-1.874l-3.213-4.645l-8.918-1.741
					c-1.642-6.544-6.193-5.352-6.193-5.352l-2.301,6.152c-4.904,0.449-5.103,4.603-5.103,4.603c4.836,7.231-3.924,5.354-3.924,5.354
					c-2.492-2.998-4.135,1.159-4.135,1.159c0.215,8.793-5.212,3.656-5.212,3.656c0.876-10.754-7.188-3.656-7.188-3.656
					c-6.404,0.483-4.617-9.67-4.617-9.67c13.144,1.807,23.224-20.818,23.224-20.818c13.11-2.531,21.422-14.533,21.422-14.533
					c6.387-8.313,0.873-5.581,0.873-5.581c-18.428,12.038-17.181-0.875-17.181-0.875c6.855,3.443,17.181-7.349,17.181-7.349
					c3.496-6.782,12.254-5.103,12.254-5.103c16.271,6.459,6.353-10.649,6.353-10.649c5.332-1.214,3.907-6.223,3.907-6.223
					c0-3.942-11.207-8.312-11.207-8.312c-6.668-2.787-9.002,9.899-9.002,9.899c-5.514,0.285-9.655,3.71-9.655,3.71
					c-12.394,7.596-10.062-3.941-10.062-3.941c16.912-7.35,16.912-15.216,16.912-15.216c5.139-17.051-6.189-15.963-7.758-18.05
					c-1.568-2.073-2.57-0.22-2.57-0.22l-5.328,3.269c0,0-1.256-1.191-2.02-1.571c-0.695-0.479-3.64,0.609-3.64,0.609l-2.928,2.568
					l-4.686,4.139l-4.286,3.444v4.867c0,2.352-4.259,3.441-4.259,3.441l-1.341-0.375v-8.363c0-0.661-2.516-0.212-2.516-0.212
					l-2.994,2.013v6.724l-3.16,0.213v-3.888c0.396-5.296-6.242,0.232-6.242,0.232c-1.854,6.456-5.563,8.078-5.563,8.078
					l-5.051,2.783l-3.207-5.117c15.391-11.487,1.641-15.415,1.641-15.415c-5.28-10.38-11.545-3.011-11.545-3.011
					c-3.209,7.388-14.253,10.382-14.253,10.382c-15.39,1.425,0.947-15.519,0.947-15.519c10.097-2.729,9.614-9.01,9.614-9.01
					l-5.937-2.515l-1.841-5.242c8.918-7.229,3.639-16.733,3.639-16.733c-0.156-4.136-4.14-2.729-4.14-2.729l-9.071,2.571
					l-0.346-4.372c2.119-7.901-5.924-6.706-5.924-6.706l-2.547-3.926l1.142-4.657c0-4.374-6.479-1.802-6.479-1.802
					s2.34,2.966,0,3.676c-2.226,0.694-5.33,6.062-5.33,6.062c-7.276-1.924-12.562,6.389-12.562,6.389
					c2.768,7.651-4.617,7.866-5.99,8.295c-1.354,0.495-2.123-5.014-2.123-5.014c-1.839-5.135-6.619,0.164-6.619,0.164l-1.159,8.34
					c-0.479,8.744-6.415,2.306-6.415,2.306l-0.914-6.225l4.617-6.673l-0.263-7.937l1.352-0.194l1.623-7.761l-5.49-0.497
					c4.846-11.813,0-15.077,0-15.077c-5.05-7.368-11.756,0.484-11.756,0.484c0.707,7.388-7.759,11.088-7.759,11.088
					c-6.439,4.001-10.348,1.363-10.348,1.363l-0.268-8.74c1.144-7.64-8.333-7.422-8.333-7.422l-0.64-5.352l6.455-10.759
					c14.967-4.155,2.943-13.662,2.943-13.662l0.215-6.723c8.547-4.158,2.072-12.47,2.072-12.47
					c-6.209-7.852-14.697,1.66-14.697,1.66c-3.411,4.799,1.922,11.538,1.922,11.538v6.209c-4.638,1.854-5.167,12.025-5.167,12.025
					c-3.607,6.24-3.873,15.193-3.873,15.193c-11.021,5.565-7.619-5.455-7.619-5.455c13.396-15.54,5.118-23.351,5.118-23.351
					c-8.759-14.126-27.811-7.382-27.811-7.382c-14.944-0.252-9.664-11.132-9.664-11.132c20.461,1.139,4.14-14.522,4.14-14.522
					c-3.655-4.884-8.257-1.426-8.257-1.426c-1.163,2.835,0.191,10.865,0.191,10.865l-5.474,1.643
					c0.642-2.731-0.232-6.228-0.232-6.228l-3.267-3.87c0-9.559-8.04-6.283-8.04-6.283c-5.552,2.448-12.202,16.381-12.202,16.381
					l-2.27-3.445c-0.715-2.338-4.621-1.354-4.621,0.229c0,1.573-0.227,3.216-0.227,3.216l-5.76,2.514
					c2.278-3.23-2.287-6.229-2.287-6.229c-4.635-4.385-7.062,1.856-7.062,1.856c3.637,2.786,1.566,8.315,1.566,8.315
					c-4.459-2.804-8.045,1.193-8.045,1.193c-3.994,1.586,0,4.799,0,4.799c5.28,2.806,1.355,8.103,1.355,8.103
					c-12.417,4.133-2.941,19.868-2.941,19.868c3.371,23.345-5.332,17.822-5.332,17.822l-4.622-8.567
					c4.404-0.942,2.556-8.312,2.556-8.312c-5.341-7.864-20.677-14.518-20.677-14.518c-11.078,5.492-7.871,19.819-7.871,19.819
					c0.469,9.006,11.529,3.651,11.529,3.651l12.182,13.885c13.59,18.03,2.941,14.804,2.941,14.804
					c-12.357-21.98-28.235-22.191-28.235-22.191c-11.042-17.322-29.858-28.401-29.858-28.401
					c-10.671-3.439-10.671,0.165-10.671,0.165c-0.87,4.69,3.535,9.778,3.535,9.778c9.362,5.505,3.426,5.74,3.426,5.74
					c-5.765-1.16-19.087-14.04-19.087-14.04c-2.569-6.013-7.348-2.568-7.348-2.568l-1.592,4.851
					c-3.191,9.473-5.102-1.139-5.102-1.139c-2.567-3.868-6.42,0.426-6.42,0.426c0.211,8.314-10.378,4.657-10.378,4.657
					c0.476-10.172-9.652-13.647-9.652-13.647c-3.46-4.602-5.743-0.929-5.743-0.929c-0.662,3.267-4.088,2.336-4.088,2.336
					c0-9.719-8.097-5.35-8.097-5.35c-4.081,4.372-3.211,7.417-3.211,7.417c0.644,3.945-2.517,2.091-2.517,2.091
					c-9.418-0.235-9.418,5.065-9.418,5.065c3.659,9.47-9.451,14.961-9.451,14.961c-7.35-1.084-10.618-11.075-10.618-11.075
					c-11.019-6.723-9.126,3.499-9.126,3.499c0.21,17.304-8.329,20.314-8.329,20.314c-20.442,5.532-16.306,14.108-16.306,14.108
					c2.997,9.438-6.475,1.36-6.475,1.36c-1.588-6.656-6.602-2.801-6.602-2.801c0.181,3.459-3.727,5.372-3.727,5.372
					c-8.223-11.546-11.755-6.461-11.755-6.461c-5.461,10.115,5.745,22.634,5.745,22.634c-4.55,2.502-3.852,4.747-3.852,4.747
					c6.523,1.483,5.405,7.1,5.405,7.1h-9.047c-10.503-0.374-6.245,3.55-6.245,3.55c-0.34,2.57,5.316,5.957,5.316,5.957l-4.938,3.281
					c-9.152,3.763-19.911,20.746-19.911,20.746c-1.851,7.706-6.653,8.099-6.653,8.099c-8.754-14.643-13.699-10.222-13.699-10.222
					c-4.119,2.177-5.382,6.704-5.382,6.704c-0.109,4.017-4.731,1.554-4.731,1.554c0-3.229-1.424-6.615-1.424-6.615
					c-3.087-9.617-8.421-10.275-8.421-10.275c-4.635,1.424-6.706,5.298-6.706,5.298c-1.567,2.298-2.427,0.535-2.427,0.535
					c-3.387-5.546-8.454-2.282-8.454-2.282c-8.136,2.799-1.891,10.539-1.891,10.539c1.249,4.817,7.226,6.138,7.226,6.138
					c6.653,0,4.354,3.049,4.354,3.049l-3.803,2.085c-10.555,1.287-5.15,9.921-5.15,9.921c4.6,7.278,10.539,1.421,10.539,1.421
					c1.033-4.921,19.406-2.547,19.406-2.547c8.83,4.849,3.992,6.42,3.992,6.42l-3.439-0.93c-3.031-2.603-5.92-0.641-5.92-0.641
					c-2.393,4.426-8.707,4.658-8.707,4.658c-8.063-5.693-9.846,1.896-9.846,1.896c1.143,10.929,10.062,9.288,10.062,9.288
					c1.353-3.711,4.671-2.674,4.671-2.674c4.514,8.134,18.657,8.134,18.657,8.134c4.477-1.089,8.989-9.507,8.989-9.507l2.104,11.2
					c16.058,13.397,4.141,19.013,4.141,19.013c-6.851-0.926-21.44,0-21.44,0c-7.67,1.248-12.822,9.83-12.822,9.83
					c-1.199,5.188,5.385,8.26,5.385,8.26c10.647,7.366,0,10.54,0,10.54c-8.651-2.516-6.798,2.071-6.798,2.071
					c0.482,6.135-5.992,3.404-5.992,3.404c0.48-1.052,0.804-4.654,0.804-4.654c-5.048-8.634-13.86,1.64-13.86,1.64
					c-8.973,4.268-6.795,8.883-6.795,8.883c-1.087,3.124,10.133,2,10.133,2c1.783,8.506-13.506,7.473-13.506,7.473
					c2.285-6.12-0.873-9.112-0.873-9.112c-3.424-5.743-10.985-1.716-10.985-1.716c1.084,2.747-2.784,6.297-2.784,6.297
					c-1.195-1.818-3.642-2.173-3.642-2.173c-3.208-2.091-5.599,1.278-5.599,1.278c0.714,1.697,0.606,5.661,0.606,5.661
					c-3.764,4.902-5.706,2.655-5.706,2.655c-3.447-7.869-9.865-7.474-9.865-7.474c-7.546-1.318-5.208,8.724-5.208,8.724
					c-5.944,5.975-0.535,10.613-0.535,10.613c3.298,2.567,7.724-4.156,7.724-4.156c2.385,8.419,11.02,14.143,11.02,14.143
					c3.655,4.815,7.562-0.217,7.562-0.217c2.303-8.025,7.407-4.187,7.407-4.187l-0.378,3.584c2.211,4.529,6.209,4.637,6.209,4.637
					c5.281-0.646,7.17-8.941,7.17-8.941c2.229-3.653,6.153-2.083,6.153-2.083c3.249,6.011,27.415,4.423,27.415,4.423
					c19.25-1.621,15.377,2.965,15.377,2.965c-4.833,1.191-7.17,3.972-7.17,3.972c2.122,5.727-5.494,5.297-5.494,5.297l-2.069-5.297
					c-0.926-4.478-9.418,0-9.418,0c-10.06,0.392-9.685,7.491-9.685,7.491c4.136,5.676,10.61,1.963,10.61,1.963
					c5.495,12.452-10.056,9.009-10.056,9.009c1.032-4.871-3.536-9.009-3.536-9.009c-2.996-4.423-9.414,0-9.414,0
					c0,3.657-4.141,3.495-4.141,3.495c-5.744-3.045-7.119,4.104-7.119,4.104c-2.282,7.854-10.809,0.428-10.809,0.428
					c-11.272-7.577-14.037,8.634-14.037,8.634c0,7.808,5.319,5.94,5.319,5.94c9.843-10.434,17.959,8.314,17.959,8.314
					c6.616,8.807,9.361-1.146,9.361-1.146c0.27-5.724,4.657-2.568,4.657-2.568l0.66,7.387c1.801,7.419,7.563,2.569,7.563,2.569
					c6.475-16.182,11.754-11.541,11.754-11.541c4.624,8.469,8.116,7.419,8.116,7.419c7.064,0.879,2.711,6.901,2.711,6.901
					c-12.891,0-22.581,7.653-22.581,7.653c-2.996,2.732-7.99-1.212-1.62,5.517c6.471,6.722-2.25,9.931-2.25,9.931l-17.943,3.282
					l-0.284,6.119c-2,8.102-11.526,4.642-11.526,4.642c0-3.448-2.946-5.087-2.946-5.087c-5.685-8.24-10.522-5.064-10.522-5.064
					c-7.846,0.483-5.082,5.511-5.082,5.511c4.8,2.355,4.354,5.852,4.354,5.852c-10.598,3.928-8.691,12.239-8.691,12.239
					c14.666,7.58,7.546,10.807,7.546,10.807c-9.612,2.126-6.401,12.343-6.401,12.343c-6.921-1.909-19.372,0-19.372,0
					c-21.118,0-30.073,16.054-30.073,16.054c-11.256-4.851-17.535-3.207-17.535-3.207c-4.833,7.146,0,15.678,0,15.678
					c7.884,10.879-7.117,12.292-7.117,12.292c0.269-9.282-14.196-5.777-14.196-5.777c-10.17-0.237-4.838,10.359-4.838,10.359
					c3.639,2.084,4.57,6.082,4.57,6.082c1.406,8.954,9.022,10.31,9.022,10.31c7.35-9.667,14.254,0.44,14.254,0.44v9.511
					c3.655,10.866,10.987-1.639,10.987-1.639l14.964-1.589c4.355-9.932,16.303,9.221,16.303,9.221
					c3.659,5.527,8.762,0.234,8.762,0.234c12.413,0.642,17.263-7.17,17.263-7.17c1.342-4.14,4.999-3.424,4.999-3.424
					c3.692,0,13.374,13.591,13.374,13.591c2.769,4.872,8.492,2.296,8.492,2.296l1.41-7.807v-1.91
					c4.353,6.28,9.665,5.778,9.665,5.778c6.209-6.598,17.591-0.211,17.591-0.211c6.74,6.241,10.647-5.082,10.647-5.082
					c-0.694-12.953,12.186-7.137,12.186-7.137l1.428,2.729c8.753-0.89,20.241,22.919,20.241,22.919c0,4.372,5.493,2.036,5.493,2.036
					l4.279-4.372c7.456,17.985,12.454,6.708,12.454,6.708c-3.408-33.038,3.443-29.538,3.443-29.538
					c5.333,9.881,7.884,5.507,7.884,5.507c5.995-15.462,15.127-16.177,15.127-16.177c14.288,23.121,24.646,19.888,24.646,19.888
					c-0.227-8.079,5.767-3.867,5.767-3.867c5.687,5.008,4.778-0.733,4.778-0.733c3.693-11.558,15.287,0.95,15.287,0.95
					c-3.105,13.856,0,13.498,0,13.498h9.186c15.021,18.946,25.477,0,25.477,0c12.823,2.675,8.859-7.939,8.859-7.939
					c-10.128-8.343,4.89-6.272,4.89-6.272c7.386,2.939,5.727-6.226,5.727-6.226c-4.322,0-3-3.993-3-3.993
					c-2.512-7.8,7.403-1.574,7.403-1.574c6.677,3.662,5.319-11.362,5.319-11.362c5.212,3.5,6.637,1.195,6.637,1.195
					c-1.805-8.081,5.401-7.761,5.401-7.761c4.833,5.955,17.444,10.595,17.444,10.595c21.279,6.492,24.954,31.861,24.954,31.861
					c5.41,18.963-25.611,66.031-25.611,66.031c-3.197,12.839,20.406,9.08,20.406,9.08c5.205-6.279,9.952-4.657,9.952-4.657
					c2.334,7.015,15.339,2.963,15.339,2.963c8.763-11.362,20.564-6.012,20.564-6.012c5.98,10.915,22.531,7.264,22.531,7.264
					c0.643-6.34,5.527-2.021,5.527-2.021c1.091,5.267,6.603,4.34,6.603,4.34c5.739-10.278,19.303-2.644,19.303-2.644
					c4.452,4.654,5.812,1.751,5.812,1.751c5.066-11.258,20.998-4.031,20.998-4.031c26.399,8.61,11.059-15.573,11.059-15.573
					l-12.897-28.131c-9.635-25.4,12.451-30.934,12.451-30.934l56.796-21.525c4.4-3.679,13.553-2.997,13.553-2.997
					c-1.584,6.458,14.95,12.772,14.95,12.772c0.871,4.815,2.728,1.744,2.728,1.744c-1.138-12.467,5.977-4.794,5.977-4.794
					c1.143,7.205,6.475,8.025,6.475,8.025c2.265-12.896,10.62-5.744,10.62-5.744c7.717,27.042,24.574,17.325,25.446,24.707
					c0.959,7.383,11.698,7.866,11.698,7.866c3.731,1.141,10.652-3.5,10.652-3.5c2.229,8.637,8.914,7.635,8.914,7.635
					c4.354,2.808,4.195-5.012,4.195-5.012l3.208-0.718c4.354,9.013,8.763,4.646,8.763,4.646c-0.768-2.841,3.584-4.646,3.584-4.646
					c6.048,11.549,10.562,10.868,10.562,10.868c4.225-0.27,13.375-6.777,13.375-6.777c0.93,2.802,5.547,5.081,5.547,5.081
					c2.711,1,3.713-4.079,3.713-4.079c5.211,12.235,10.326,7.809,10.326,7.809c7.549-9.451,10.348,8.525,10.348,8.525
					c5.279-3.942,19.297-2.571,19.297-2.571c8.49,12.957,19.748,6.942,19.748,6.942c1.838-10.114,9.951-5.034,9.951-5.034
					c8.652,15.02,16.535,7.871,16.535,7.871c7.348-6.016,4.352-20.098,4.352-20.098c7.14,0.477,10.99-6.068,10.99-6.068
					c7.898-10.382,11.111-0.664,11.111-0.664c4.121,4.442,4.998,0.27,4.998,0.27c-2.945-10.15,4.133-8.347,4.133-8.347
					c8.744,15.784,11.525,2.335,11.525,2.335c2.067-8.504,0.928-18.303,0.928-18.303c-13.324-3.657-8.49-9.183-8.49-9.183
					C1180.039,511.048,1179.805,501.542,1179.805,501.542z M504.312,389.003c0,0,1.141,14.114-13.094,7.873
					c0,0,0.694-5.749,3.674-6.228c0,0,4.583,0.231,2.515-2.569c0,0-2.067-3.875-4.852-1.801l-4.065,1.354
					c0,0,0.875-8.345-9.027-8.558c0,0-4.349-6.407,7.118-4.819c0,0,8.544,0.894,9.47-5.729c0,0,6.923-1.208,4.354,5.064
					c0,0,7.173,9.42,12.845,11.222C513.249,384.812,510.035,392.932,504.312,389.003z M500.617,193.417H490.56
					c0,0-11.792-8.51,0-19.651c0,0,15.34,0.476,23.438,13.429C513.998,187.194,518.082,194.309,500.617,193.417z M529.657,234.997
					c0,0-1.942-0.692-4.995-1.621c0,0-3.585,0.637-4.51-1.589l-1.573-4.369c0,0,5.924-4.156,9.188,0
					C527.767,227.418,532.87,233.856,529.657,234.997z M652.129,353.494v-4.643c0,0,7.33-7.365,14.718,1.372
					c0,0,9.912,12.237-6.197,7.799C660.649,358.023,653.468,357.861,652.129,353.494z M670.345,478.155
					c-6.698,1.164-7.641-7.58-7.641-7.58l2.072-1.643c3.015-3.301,8.062,1.643,8.062,1.643
					C676.759,479.745,670.345,478.155,670.345,478.155z M684.804,486.968c-2.994,1.858-4.562-1.192-4.562-1.192
					c-6.479-2.319,1.084-5.529,1.798-5.529h4.121C687.538,482.76,684.804,486.968,684.804,486.968z M707.763,343.983
					c0,0,13.397,14.754-3.868,14.04c0,0-7.337,10.22-15.661,0.073l-2.982-2.856l0.701-9.617c0,0-6.208-3.975-6.956-6.507
					l-2.236-2.337l0.771-4.089c0,0,8.184-4.883,0-9.02c0,0-9.257,7.42-14.323,9.02c0,0-6.19,2.502-9.956-4.492
					c0,0-2.652-3.369-7.344-4.526c0,0-5.924-8.424,11.324-13.879c0,0,3.587-7.422,5.761,0c0,0,3.655,4.814,6.149,0
					c0,0,9.264-4.819,4.894-11.046c0,0,8.274-0.266,9.205,5.035c0,0,3.908,6.887,10.331,6.011c0,0,1.834,13.879,8.485,9.506
					c0,0,23.227,17.981,1.841,17.089C703.896,336.387,699.545,341.043,707.763,343.983z M724.62,498.421c0,0-3.46-2.729-6.476-2.729
					c0,0-2.712-2.405,1.853-5.301l3.215-1.639l1.408-1.247c0,0,7.133-2.894,6.917,4.69
					C731.537,492.196,730.348,502.702,724.62,498.421z M741.333,209.154c0,0-10.934-0.323-10.062-7.637l3.482-1.357l-1.876-4.208
					c0,0-5.478-9.894,3.941-13.395c0,0,6.19-2.782,8.258,6.724c0,0-0.501,6.442,2.072,6.671c0,0,6.204,1.482,3.868-6.899
					c0,0,18.176,7.83-3.868,15.035C747.149,204.087,745.955,210.314,741.333,209.154z M762.967,378.199
					c0,0,3.001,30.91-5.702,32.979c-8.762,2.087-15.235-10.381-11.763-16.211c0,0,9.424-4.087,8.333-11.544l4.356-3.873
					l-0.481-5.082c0,0-7.083-19.711,7.113-21.997C764.823,352.472,771.729,360.661,762.967,378.199z M857.293,236.645h2.014
					c2.124,0,1.844,3.883,1.844,3.883c0.942,4.638-3.856,3.977-3.856,3.977C852.62,241.938,857.293,236.645,857.293,236.645z
					 M845.986,337.988c0,0-6.42-0.515-4.143-3.938l-1.727-2.997l-0.979-1.8c0,0-3.427-5.799,4.938-5.102
					C844.076,324.151,853.814,328.092,845.986,337.988z M841.845,305.419c0,0,6.478,7.169-2.831,7.868l-1.951-1.909
					C837.062,311.379,833.141,306.188,841.845,305.419z M804.799,311.878l4.85-2.086c0,0,8.049-8.955,11.312-6.011
					c0,0-2.068,26.396-16.161,22.455C804.799,326.236,800.951,317.658,804.799,311.878z M797.895,392.717l5.284-6.228
					c6.844-3.671,6.761,4.638,6.761,4.638c0,3.178-7.85,9.418-7.85,9.418C792.618,401.507,797.895,392.717,797.895,392.717z
					 M864.161,482.971c-8.258-0.497-29.935,9.227-29.935,9.227c-12.819,14.798-38.778,7.278-38.778,7.278
					c-9.254-4.388-2.83-12.454-2.83-12.454c2.83-4.579,12.681-4.009,12.681-4.009h3.478l4.295-0.699
					c8.544-3.229,1.47-12.72,1.47-12.72c-3.033-8.314,7.294-6.724,7.294-6.724c-0.22-4.336,6.688-6.389,6.688-6.389l1.566,5.512
					c1.646,3.071,3.553-0.211,3.553-0.211c-0.324-6.016,5.707-5.534,5.707-5.534l2.048,2.515c2.803,4.585,3.945-0.922,3.945-0.922
					c5.209-8.299,8.472-1.593,8.472-1.593l0.873,6.46c0.72,7.135,5.995,13.379,5.995,13.379
					C871.489,478.871,864.161,482.971,864.161,482.971z M908.986,209.83c0,0-1.856,3.208-2.517,4.139c-0.691,0.875-6.241,0-6.241,0
					v-8.795c0,0,3.263-0.393,7.385,1.965C911.75,209.595,908.986,209.83,908.986,209.83z M914.519,206.171l-3.407-3.244
					c0,0,5.651-6.707,7.813-0.485C918.925,202.442,920.027,209.83,914.519,206.171z M977.729,194.794c0,0-8.252,7.204-13.104,3.069
					l-2.713-4.212l-2.573-2.515c0,0-4.829-7.864-4.136-9.949c0,0,12.414-9.514,17.73-3.001
					C972.934,178.187,997.956,189.281,977.729,194.794z"/>
				<path fill="#201813" d="M484.296,760.724l-0.658,16.602h-88.545c0.873-18.625,1.375-44.303,1.375-77.311
					c0-28.339-0.501-51.691-1.375-69.863h20.89c-0.871,15.232-1.359,38.505-1.359,69.863c0,25.795-0.389,46.38-1.246,61.954
					C435.889,761.969,459.538,761.523,484.296,760.724"/>
				<path fill="#201813" d="M589.019,779.822l-29.375,0.068c-3.441-5.736-4.301-9.078-4.301-12.397h-1.159
					c-9.24,8.456-21.744,12.646-37.619,12.646c-8.669,0-16.105-2.491-22.37-7.634c-6.187-5.083-9.362-12.341-9.362-21.689
					c0-11.646,4.906-21.029,14.696-28.026c9.739-6.99,27.865-10.752,54.334-11.141c0.286-1.805,0.32-3.873,0.32-6.283
					c0-9.164-2.424-15.356-7.312-18.515c-4.908-3.071-12.434-4.526-22.37-4.526c-11.807,0-23.403,1.425-34.815,4.364l1.96-15.621
					c11.271-3.229,24.202-4.854,38.775-4.854c13.433,0,23.761,2.767,30.969,8.278c7.292,5.522,10.938,14.967,10.938,28.362
					c0,3.563-0.183,9.958-0.447,19.296c-0.379,9.279-0.54,15.448-0.54,18.567c0,13.702-5.408,33.557,17.552,35.125 M554.415,755.426
					c-0.32-11.494-0.552-21.75-0.552-30.937c-14.073,0-24.848,1.089-32.196,3.17c-12.29,3.772-18.427,11.031-18.427,21.697
					c0,10.274,7.225,15.337,21.637,15.337C537.24,764.693,547.067,761.592,554.415,755.426"/>
				<path fill="#201813" d="M1074.52,779.342l-29.401,0.07c-3.402-5.815-4.351-9.104-4.351-12.437h-1.067
					c-9.26,8.481-21.814,12.685-37.763,12.685c-8.579,0-15.982-2.567-22.242-7.635c-6.211-5.077-9.35-12.307-9.35-21.743
					c0-11.592,4.833-20.978,14.627-28.043c9.722-6.985,27.844-10.752,54.354-11.07c0.197-1.805,0.373-3.891,0.373-6.197
					c0-9.319-2.519-15.511-7.404-18.565c-4.901-3.102-12.342-4.649-22.296-4.649c-11.811,0-23.4,1.479-34.82,4.378l1.891-15.507
					c11.273-3.321,24.229-4.963,38.906-4.963c13.272,0,23.598,2.836,30.895,8.348c7.297,5.564,10.881,14.961,10.881,28.288
					c0,3.571-0.107,9.958-0.502,19.296c-0.318,9.355-0.426,15.522-0.426,18.579c0,13.762-5.443,33.585,17.52,35.115
					 M1039.895,754.908c-0.426-11.459-0.567-21.782-0.567-30.86c-14.099,0-24.835,1.056-32.144,3.172
					c-12.361,3.768-18.515,10.933-18.515,21.578c0,10.278,7.185,15.362,21.652,15.362
					C1022.715,764.16,1032.58,761.089,1039.895,754.908"/>
				<path fill="#201813" d="M816.997,861.183h-11.97c-1.373-2.357-1.799-3.61-1.799-5.083h-0.446
					c-3.693,3.437-8.86,5.188-15.271,5.188c-3.525,0-6.547-0.985-9.08-3.106c-2.567-2.08-3.867-5.049-3.867-8.793
					c0-4.759,2.018-8.585,5.977-11.43c3.918-2.842,11.308-4.378,22.137-4.533c0.053-0.766,0.104-1.59,0.104-2.517
					c0-3.821-0.959-6.349-2.94-7.542c-2.036-1.252-5.052-1.919-9.134-1.919c-4.728,0-9.457,0.667-14.126,1.866l0.747-6.429
					c4.636-1.315,9.864-1.994,15.789-1.994c5.44,0,9.664,1.213,12.608,3.403c2.94,2.289,4.478,6.098,4.478,11.521
					c0,1.484-0.073,4.089-0.229,7.902c-0.112,3.731-0.166,6.3-0.166,7.553c0,5.581-2.229,13.661,7.062,14.265 M802.958,851.172
					c-0.28-4.638-0.28-8.793-0.28-12.504c-5.692,0-10.098,0.447-13.095,1.306c-5.012,1.478-7.512,4.439-7.512,8.806
					c0,4.138,2.933,6.23,8.812,6.23C795.882,855.01,799.911,853.74,802.958,851.172"/>
				<path fill="#201813" d="M991.428,860.197h-11.945c-1.412-2.303-1.754-3.656-1.754-5.032h-0.425
					c-3.765,3.502-8.861,5.195-15.343,5.195c-3.499,0-6.528-1.056-9.099-3.107c-2.492-2.088-3.798-4.979-3.798-8.87
					c0-4.74,2.018-8.503,5.94-11.359c3.958-2.889,11.308-4.439,22.138-4.532c0.104-0.767,0.16-1.583,0.16-2.562
					c0-3.768-0.981-6.282-2.992-7.541c-2.019-1.305-5.108-1.911-9.138-1.911c-4.799,0-9.528,0.606-14.092,1.802l0.771-6.278
					c4.49-1.354,9.774-2.04,15.765-2.04c5.44,0,9.63,1.166,12.56,3.415c2.996,2.243,4.457,6.099,4.457,11.523
					c0,1.476-0.052,4.046-0.142,7.807c-0.181,3.821-0.284,6.337-0.284,7.6c0,5.564-2.124,13.646,7.188,14.308 M977.342,850.249
					c-0.146-4.642-0.197-8.799-0.197-12.53c-5.778,0-10.136,0.398-13.072,1.285c-5.053,1.572-7.547,4.465-7.547,8.742
					c0,4.208,2.996,6.261,8.81,6.261C970.398,854.007,974.409,852.812,977.342,850.249"/>
				<path fill="#201813" d="M742.028,759.343l-1.479,16.875c-9.188,2.798-19.244,4.155-30.126,4.155
					c-25.833,0-45.256-7.146-58.206-21.297c-13.038-14.161-19.512-31.533-19.512-52.087c0-21.459,7.277-40.043,21.744-55.49
					c14.468-15.623,34.014-23.312,58.361-23.312c6.763,0,13.951,0.909,21.439,2.995l-3.153,17.91
					c-8.602-2.66-16.32-4.085-23.117-4.085c-18.119,0-31.875,5.728-41.242,17.035c-9.396,11.31-14.089,25.134-14.089,41.521
					c0,16.607,5.401,30.866,16.209,42.779c10.797,11.971,25.744,17.87,44.778,17.87
					C720.928,764.212,730.348,762.572,742.028,759.343"/>
				<path fill="#201813" d="M828.631,711.006c0,3.124-0.145,7.522-0.43,13.106l-77.411,1.31c0.765,11.023,5.009,20.206,12.77,27.638
					c7.673,7.501,17.958,11.152,30.75,11.152c11.417,0,22.029-1.367,32.034-4.174l-1.904,15.911
					c-7.334,3.016-17.946,4.424-31.858,4.424c-19.475,0-34.389-5.362-44.61-16.05c-10.277-10.666-15.413-23.704-15.413-39.121
					c0-16.37,4.691-30.538,14.038-42.448c9.363-11.854,21.927-17.818,37.658-17.818c14.462,0,25.449,4.337,33.066,12.892
					C824.868,686.48,828.631,697.5,828.631,711.006 M809.862,711.202c0-21.192-8.86-31.822-26.487-31.822
					c-18.067,0-28.608,11.077-31.894,33.11L809.862,711.202z"/>
				<path fill="#201813" d="M857.028,777.324h-20.41c1.056-15.097,0.182-32.305,0.182-51.642c0-21.796-2.571-38.564-2.571-57.63
					l22.515-0.214c-0.839,15.728-1.336,35.017-1.336,57.844C855.406,743.722,855.938,760.983,857.028,777.324 M861.753,636.057
					c0,3.866-1.25,7.199-3.749,9.987c-2.462,2.8-5.916,4.261-10.449,4.261c-3.798,0-6.795-1.299-8.971-3.658
					c-2.104-2.526-3.212-5.478-3.212-8.92c0-3.815,1.246-7.095,3.87-9.877c2.519-2.73,6.101-4.155,10.56-4.155
					c3.677,0,6.568,1.211,8.688,3.727C860.628,629.83,861.753,632.666,861.753,636.057"/>
				<path fill="#201813" d="M969.258,719.261c0,16.483-4.634,30.791-14.056,42.939c-9.406,12.108-22.249,18.173-38.547,18.173
					c-13.768,0-23.132-2.516-28.131-7.421h-0.873l-5.064,2.059l-13.271,5.362c0.98-25.95,0.499-57.2,0.499-87.4
					c0-27.309-1.32-52.174-3.818-74.683l22.301-1.141c-0.7,13.001-1.072,33.543-1.072,61.622h0.875
					c7.351-8.521,19.031-12.786,35.033-12.786c13.84,0,25.01,5.141,33.499,15.606C965.071,691.987,969.258,704.555,969.258,719.261
					 M949.229,721.996c0-11.438-2.941-21.053-8.918-28.919c-5.924-7.814-14.094-11.738-24.472-11.738
					c-13.595,0-23.229,4.086-29.114,12.288c0,26.919,0.608,48.628,1.801,65.328c6.103,5.084,14.038,7.651,23.779,7.651
					c12.34,0,21.525-4.378,27.682-12.991C946.143,744.915,949.229,734.39,949.229,721.996"/>
				<path fill="#201813" d="M559.465,859.665h-9.883c0-2.094-1.908-8.76-5.831-19.785h-27.045
					c-3.904,10.915-5.793,17.408-5.793,19.785h-9.417c0-1.218,3.958-11.282,12.074-30.062c7.993-18.96,12.005-29.283,12.005-31.19
					h10.883c0,1.854,3.87,12.133,11.541,30.693C555.663,847.746,559.465,857.896,559.465,859.665z M541.517,833.638
					c-7.275-18.388-10.983-28.13-10.983-29.343h-0.43c0,0.998-3.85,10.829-11.416,29.343H541.517z"/>
				<path fill="#201813" d="M593.085,846.87c0,9.119-5.81,13.757-17.46,13.757c-5.104,0-9.955-0.552-14.414-1.572l1.464-6.887
					c4.029,1.572,8.488,2.354,13.234,2.354c6.8,0,10.219-1.998,10.219-5.848c0-1.851-0.873-3.402-2.335-4.545
					c-1.463-1.089-3.979-2.29-7.438-3.64c-4.474-1.821-7.673-3.571-9.684-5.143c-2.947-2.405-4.371-5.368-4.371-8.753
					c0-3.553,1.305-6.602,4.029-9.136c2.68-2.603,6.762-3.871,12.238-3.871c5.334,0,9.683,0.444,12.95,1.373l-1.518,6.775
					c-3.389-1.392-7.242-2.027-11.65-2.027c-6.022,0-9.021,1.737-9.021,5.204c0,1.732,0.689,3.212,2.012,4.244
					c1.357,1.089,3.961,2.464,7.868,3.945c4.208,1.643,7.348,3.333,9.362,4.904C591.57,840.489,593.085,843.41,593.085,846.87z"/>
				<path fill="#201813" d="M639.11,832.014c0,1.299-0.053,3.178-0.159,5.455l-32.147,0.539c0.267,4.604,2.073,8.417,5.335,11.541
					c3.158,3.049,7.438,4.637,12.666,4.637c4.8,0,9.253-0.606,13.379-1.742l-0.75,6.611c-3.104,1.246-7.511,1.781-13.271,1.781
					c-8.118,0-14.269-2.169-18.55-6.599c-4.3-4.475-6.369-9.895-6.369-16.28c0-6.894,1.965-12.725,5.779-17.697
					c3.906-4.922,9.188-7.385,15.661-7.385c6.027,0,10.648,1.802,13.697,5.349C637.54,821.796,639.11,826.426,639.11,832.014z
					 M631.332,832.101c0-8.786-3.641-13.209-10.99-13.209c-7.507,0-11.968,4.58-13.308,13.691L631.332,832.101z"/>
				<path fill="#201813" d="M691.175,809.061l-0.765,6.509c-5.82,0-9.032,0.929-9.613,2.782v0.431
					c2.013,2.403,2.975,5.298,2.975,8.346c0,4.887-1.639,8.973-4.774,12.146c-3.159,3.211-8.114,4.8-14.808,4.8
					c-2.947,0-5.336-0.371-7.079-0.979c-1.469,1.159-2.268,2.457-2.268,4.104c0,1.96,0.929,3.314,2.712,3.976
					c2.334,0.944,7.137,1.317,14.462,1.317c11.863,0,17.783,3.998,17.783,11.864c0,5.676-2.334,10.271-6.901,14.016
					c-4.62,3.675-10.646,5.535-17.995,5.535c-7.512,0-12.9-1.373-15.984-4.109c-3.208-2.759-4.797-6.056-4.797-9.894
					c0-3.531,0.763-6.384,2.333-8.457c1.52-2.14,3.537-3.427,5.872-3.979v-0.37c-2.498-1.219-3.731-3.519-3.731-6.848
					c0-3.105,1.607-5.836,4.656-8.159v-0.348c-1.62-0.85-3.208-2.198-4.656-4.182c-1.549-1.854-2.245-4.301-2.245-7.188
					c0-4.925,1.572-9.023,4.904-12.148c3.271-3.1,7.995-4.747,14.199-4.747c5.155,0,9.062,1.005,12.007,2.808h0.444
					c1.092-5.368,3.71-7.938,7.889-7.938C688.125,808.347,689.925,808.573,691.175,809.061z M682.81,867.53
					c0-2.929-1.105-4.979-3.211-6.244c-2.139-1.211-6.156-1.802-12.077-1.802c-3.996,0-7.634-0.18-10.933-0.553
					c-3.875,1.851-5.726,4.552-5.726,8.082c0,7.772,4.992,11.518,15.021,11.518c5.171,0,9.255-0.969,12.342-3.049
					C681.222,873.465,682.81,870.794,682.81,867.53z M676.34,829.105c0-3.496-1.146-6.123-3.343-7.921
					c-2.116-1.803-4.888-2.799-8.221-2.799c-3.194,0-5.852,0.944-7.923,2.695c-2.14,1.745-3.206,4.365-3.206,7.524
					c0,3.406,1.139,6.004,3.258,7.829c2.162,1.799,4.995,2.68,8.37,2.68c3.104,0,5.724-0.881,7.848-2.568
					C675.229,834.745,676.34,832.34,676.34,829.105z"/>
				<path fill="#201813" d="M735.557,859.535l-7.281,0.326c-0.445-1.804-0.645-3.219-0.645-4.406h-0.495
					c-4.138,3.6-9.151,5.327-15.129,5.327c-5.384,0-9.257-1.352-11.75-3.978c-2.465-2.567-3.656-7.864-3.656-15.801
					c0-1.091,0.069-2.771,0.125-5.008c0.05-2.198,0.05-3.733,0.05-4.591c0-4.527-0.216-9.96-0.769-16.23l8.708-0.317
					c-0.374,6.037-0.533,11.237-0.533,15.515c0,9.826,0.588,16.325,1.833,19.334c1.323,2.943,4.085,4.479,8.545,4.479
					c5.013,0,9.075-1.27,12.345-3.784c0-17.425-0.09-29.216-0.429-35.226l8.424-0.317c-0.274,5.883-0.378,14.039-0.378,24.467
					C734.521,845.979,734.854,852.755,735.557,859.535z"/>
				<path fill="#201813" d="M772.92,814.961l-2.121,7.426c-2.428-0.939-4.672-1.432-6.741-1.432c-5.865,0-9.737,2.853-11.419,8.362
					c0,14.487,0.11,24.525,0.22,30.348h-8.227c0.5-9.959,0.734-17.664,0.734-23.118c0-7.486-0.734-14.555-2.247-21.371l8.218-1.218
					c0.592,3.468,0.876,5.751,0.876,6.938h0.426c3.319-5.007,7.246-7.466,11.745-7.466
					C766.84,813.431,769.604,813.958,772.92,814.961z"/>
				<path fill="#201813" d="M860.451,859.535l-6.974,0.292c-0.269-1.38-0.41-2.809-0.41-4.372h-0.499
					c-3.318,3.653-8.155,5.381-14.574,5.381c-5.979,0-10.667-2.123-14.2-6.436c-3.478-4.318-5.276-9.513-5.276-15.682
					c0-6.886,1.943-12.878,5.885-17.923c3.906-4.961,9.4-7.476,16.483-7.476c5.049,0,8.684,0.996,10.808,3.05h0.396
					c0-7.74-0.215-15.345-0.61-22.828l8.885-0.326c-0.608,7.921-0.944,18.354-0.944,31.255
					C859.417,837.527,859.753,849.265,860.451,859.535z M852.891,850.314c0-9.738-0.321-19.141-0.803-28.125
					c-2.52-2.163-5.676-3.251-9.42-3.251c-5.318,0-9.262,1.802-11.862,5.372c-2.604,3.493-3.926,7.952-3.926,13.25
					c0,4.761,1.198,8.812,3.714,12.039c2.493,3.286,5.938,4.922,10.344,4.922C846.412,854.521,850.392,853.079,852.891,850.314z"/>
				<path fill="#201813" d="M912.766,835.938c0,8.027-2.331,14.312-6.88,18.746c-4.564,4.458-9.971,6.761-16.161,6.761
					c-5.835,0-10.774-2.014-14.948-5.989c-4.159-3.946-6.282-9.632-6.282-16.787c0-8.133,2.302-14.432,6.922-18.959
					c4.619-4.533,10.007-6.834,16.214-6.834c5.818,0,10.757,2.016,14.898,6.017C910.663,822.912,912.766,828.606,912.766,835.938z
					 M904.725,837.562c0-4.903-1.232-9.222-3.744-13.044c-2.45-3.812-5.889-5.736-10.438-5.736c-4.516,0-7.956,1.854-10.35,5.455
					c-2.438,3.623-3.705,7.776-3.705,12.525c0,4.915,1.268,9.274,3.705,13.035c2.443,3.831,5.979,5.657,10.513,5.657
					c4.561,0,7.95-1.715,10.35-5.298C903.491,846.481,904.725,842.321,904.725,837.562z"/>
				<path fill="#201813" d="M949.064,814.961l-2.12,7.426c-2.445-0.939-4.688-1.432-6.741-1.432c-5.891,0-9.669,2.853-11.469,8.362
					c0,14.487,0.104,24.525,0.251,30.348h-8.265c0.538-9.959,0.768-17.664,0.768-23.118c0-7.486-0.695-14.555-2.176-21.371
					l8.211-1.218c0.551,3.468,0.812,5.751,0.812,6.938h0.396c3.365-5.007,7.332-7.466,11.81-7.466
					C942.931,813.431,945.75,813.958,949.064,814.961z"/>
			</g>
		</g>
	</g>
</g>
<g id="Capa_2" display="none">
	<g display="inline">
		<g>
			
				<linearGradient id="SVGID_1_" gradientUnits="userSpaceOnUse" x1="362.8975" y1="-25.8237" x2="508.417" y2="-25.8237" gradientTransform="matrix(1 0 0 -1 104 953)">
				<stop  offset="0" style="stop-color:#DBBF5C"/>
				<stop  offset="0.2752" style="stop-color:#E8CB82"/>
				<stop  offset="0.5298" style="stop-color:#AC8536"/>
				<stop  offset="0.7525" style="stop-color:#B99C4E"/>
				<stop  offset="1" style="stop-color:#AC8536"/>
			</linearGradient>
			<path fill="url(#SVGID_1_)" d="M571.175,936.334c-3.337,4.146-6.914,7.125-10.014,9.556c-9.974,7.88-19.561,11.815-28.783,11.815
				c-5.574,0-10.117-1.621-13.61-4.865c-3.498-3.24-5.251-7.395-5.251-12.471c0-9.489,6.69-18.484,20.068-26.989
				c13.372-8.503,27.6-12.759,42.667-12.759c11.018,0,19.801,2.427,26.348,7.271c6.549,4.848,9.817,11.363,9.817,19.551
				c0,22.302-19.401,36.834-58.202,43.607c22.788,5.19,34.188,16.783,34.188,34.787c0,13.575-7.769,25.504-23.291,35.774
				c-15.532,10.271-33.504,15.414-53.922,15.414c-12.927,0-23.539-2.591-31.834-7.772c-8.304-5.18-12.458-11.818-12.458-19.924
				c0-8.379,4.118-15.54,12.361-21.47c8.24-5.938,18.204-8.903,29.884-8.903c8.849,0,13.28,0.567,13.28,1.691
				c0,0.568-0.282,0.854-0.849,0.854h-1.134c-3.481-0.564-6.402-0.854-8.759-0.854c-10.265,0-18.955,2.948-26.066,8.836
				c-7.11,5.888-10.663,13.066-10.663,21.542c0,6.97,2.804,12.674,8.422,17.1c5.62,4.425,12.866,6.64,21.741,6.64
				c17.218,0,33.051-6.125,47.491-18.386c14.443-12.255,21.665-25.734,21.665-40.438c0-12.16-7.441-20.179-22.323-24.042
				c-8.104,1.227-14.74,1.835-19.92,1.835c-4.895,0-7.349-0.608-7.349-1.835c0-1.881,3.483-2.825,10.457-2.825
				c5.372,0,10.975,0.471,16.812,1.415c14.32-4.807,25.722-11.716,34.194-20.746c8.478-9.034,12.718-18.868,12.718-29.502
				c0-11.946-7.632-17.923-22.889-17.923c-13.192,0-26.38,4.533-39.561,13.599c-13.188,9.065-19.784,18.202-19.784,27.406
				c0,8.454,5.443,12.681,16.325,12.681c6.483,0,13.819-2.597,22.001-7.8c8.183-5.198,14.622-11.36,19.327-18.484
				c0,0,11.415-17.533,4.132-27.349C578.411,902.373,589.822,913.126,571.175,936.334z"/>
			
				<linearGradient id="SVGID_2_" gradientUnits="userSpaceOnUse" x1="496.5811" y1="-25.8242" x2="640.417" y2="-25.8242" gradientTransform="matrix(1 0 0 -1 104 953)">
				<stop  offset="0" style="stop-color:#DBBF5C"/>
				<stop  offset="0.2752" style="stop-color:#E8CB82"/>
				<stop  offset="0.5298" style="stop-color:#AC8536"/>
				<stop  offset="0.7525" style="stop-color:#B99C4E"/>
				<stop  offset="1" style="stop-color:#AC8536"/>
			</linearGradient>
			<path fill="url(#SVGID_2_)" d="M744.417,942.374c0,21.577-10.782,44.576-32.337,68.984
				c-26.255,29.689-50.544,44.531-72.858,44.531c-11.325,0-20.594-4.027-27.813-12.097c-7.218-8.062-10.827-18.422-10.827-31.058
				c0-25.322,15.555-51.067,46.659-77.235c26.857-22.495,48.305-33.741,64.326-33.741c9.958,0,17.923,3.711,23.896,11.141
				C741.431,920.325,744.417,930.149,744.417,942.374z M734.098,926.834c0-15.4-7.416-23.101-22.25-23.101
				c-12.16,0-26.203,7.153-42.132,21.462c-15.178,13.557-28.184,29.891-39.023,48.999c-11.319,20.046-16.97,37.747-16.97,53.092
				c0,17.754,8.407,26.628,25.221,26.628c20.703,0,41.511-14.466,62.401-43.396c9.891-13.664,17.813-28.133,23.792-43.4
				C731.116,951.855,734.098,938.424,734.098,926.834z"/>
		</g>
		<g>
			
				<linearGradient id="SVGID_3_" gradientUnits="userSpaceOnUse" x1="629.4199" y1="-70.0845" x2="698.2822" y2="-70.0845" gradientTransform="matrix(1 0 0 -1 104 953)">
				<stop  offset="0" style="stop-color:#DBBF5C"/>
				<stop  offset="0.2752" style="stop-color:#E8CB82"/>
				<stop  offset="0.5298" style="stop-color:#AC8536"/>
				<stop  offset="0.7525" style="stop-color:#B99C4E"/>
				<stop  offset="1" style="stop-color:#AC8536"/>
			</linearGradient>
			<path fill="url(#SVGID_3_)" d="M736.817,1056.775c-2.265-1.76-3.397-4.313-3.397-7.665c0-6.452,4.109-14.575,12.318-24.382
				c7.956-9.46,17.088-17.546,27.394-24.246l21.195-13.731l3.51,5.232l-21.216,13.728c-9.967,6.45-18.5,14.381-25.615,23.771
				c-6.443,8.472-9.67,15.017-9.67,19.629c0,1.085,0.23,1.861,0.696,2.326c0.459,0.461,1.107,0.687,1.941,0.687
				c4.272,0,10.729-3.432,19.354-10.3c9.804-7.79,17.091-16.293,21.864-25.512l11.565-22.366l5.524,3.016
				c-4.272,7.793-7.792,14.767-10.556,20.923c-2.766,6.154-5.529,13.257-8.29,21.296c-0.842,2.516-1.888,5.74-3.141,9.679
				c-1.26,3.938-2.225,7.167-2.894,9.678l-6.782-1.76c0.747-3.019,1.693-6.097,2.823-9.236c1.13-3.143,2.242-6.262,3.328-9.361
				c-5.779,6.114-11.185,10.979-16.213,14.578c-6.198,4.44-11.559,6.66-16.084,6.66
				C741.463,1059.416,738.906,1058.535,736.817,1056.775z"/>
			
				<linearGradient id="SVGID_4_" gradientUnits="userSpaceOnUse" x1="689.6172" y1="-60.0928" x2="759.4834" y2="-60.0928" gradientTransform="matrix(1 0 0 -1 104 953)">
				<stop  offset="0" style="stop-color:#DBBF5C"/>
				<stop  offset="0.2752" style="stop-color:#E8CB82"/>
				<stop  offset="0.5298" style="stop-color:#AC8536"/>
				<stop  offset="0.7525" style="stop-color:#B99C4E"/>
				<stop  offset="1" style="stop-color:#AC8536"/>
			</linearGradient>
			<path fill="url(#SVGID_4_)" d="M828.53,989.29l-13.883,31.516l7.176-7.791c6.121-6.45,11.75-11.686,16.86-15.709
				c5.118-4.022,11.496-8.208,19.137-12.565l5.663,3.426l-32.421,72.098l-5.729-2.581l27.21-62.354
				c-4.857,3.099-9.192,6.238-13.008,9.421c-3.807,3.186-8.188,7.375-13.129,12.567c-6.535,6.786-11.667,12.861-15.396,18.225
				c-3.721,5.36-7.642,12.271-11.741,20.733l-5.652-2.645l29.134-66.847L828.53,989.29z M824.654,971.817
				c2.514-2.045,4.813-3.54,6.912-4.482c2.093-0.942,3.975-1.413,5.651-1.413c2.934,0,5.796,1.637,8.609,4.901
				c2.805,3.268,4.753,4.9,5.841,4.9c1.004,0,2.053-0.515,3.14-1.554c0.669-0.684,1.511-1.718,2.514-3.096l5.027,4.648
				c-2.428,1.973-4.668,3.408-6.724,4.31c-2.053,0.896-3.873,1.344-5.465,1.344c-2.599,0-5.215-1.525-7.854-4.584
				c-2.638-3.057-4.67-4.588-6.096-4.588c-0.925,0-1.904,0.337-2.953,1.004c-1.049,0.673-2.24,1.76-3.583,3.271L824.654,971.817z"/>
			
				<linearGradient id="SVGID_5_" gradientUnits="userSpaceOnUse" x1="754.5791" y1="-69.6587" x2="807.9863" y2="-69.6587" gradientTransform="matrix(1 0 0 -1 104 953)">
				<stop  offset="0" style="stop-color:#DBBF5C"/>
				<stop  offset="0.2752" style="stop-color:#E8CB82"/>
				<stop  offset="0.5298" style="stop-color:#AC8536"/>
				<stop  offset="0.7525" style="stop-color:#B99C4E"/>
				<stop  offset="1" style="stop-color:#AC8536"/>
			</linearGradient>
			<path fill="url(#SVGID_5_)" d="M902.688,1033.279c-3.768,6.779-8.38,12.565-13.825,17.338c-6.03,5.28-11.687,7.918-16.962,7.918
				c-2.431,0-4.692-0.588-6.787-1.757c-2.098-1.177-3.707-3.062-4.841-5.657c-1.13-2.598-1.693-5.571-1.693-8.921
				c0-4.271,0.713-8.816,2.133-13.638c1.427-4.813,3.229-9.525,5.409-14.135c4.016-7.621,8.166-13.74,12.442-18.346
				c5.774-6.2,11.515-9.3,17.216-9.3c2.428,0,4.854,0.547,7.285,1.63c3.098,1.426,5.359,3.502,6.784,6.229
				c1.425,2.721,2.138,5.966,2.138,9.735c0,4.354-0.862,9.046-2.574,14.072C907.688,1023.477,905.449,1028.419,902.688,1033.279z
				 M871.9,1017.519c-4.356,7.941-6.536,15.97-6.536,24.076c0,5.351,1.177,8.693,3.521,10.031c0.922,0.585,1.966,0.877,3.144,0.877
				c3.684,0,8.08-2.379,13.192-7.146c4.771-4.435,8.752-9.447,11.938-15.05c2.43-4.177,4.402-8.549,5.907-13.104
				c1.505-4.558,2.263-8.839,2.263-12.857c0-4.846-1.512-8.189-4.525-10.027c-1.427-0.836-2.974-1.251-4.648-1.251
				c-4.104,0-8.504,2.548-13.196,7.646C878.936,1005.061,875.249,1010.663,871.9,1017.519z"/>
			
				<linearGradient id="SVGID_6_" gradientUnits="userSpaceOnUse" x1="802.2061" y1="-69.8491" x2="878.7383" y2="-69.8491" gradientTransform="matrix(1 0 0 -1 104 953)">
				<stop  offset="0" style="stop-color:#DBBF5C"/>
				<stop  offset="0.2752" style="stop-color:#E8CB82"/>
				<stop  offset="0.5298" style="stop-color:#AC8536"/>
				<stop  offset="0.7525" style="stop-color:#B99C4E"/>
				<stop  offset="1" style="stop-color:#AC8536"/>
			</linearGradient>
			<path fill="url(#SVGID_6_)" d="M958.729,1007.891l3.897-1.253l6.278-2.389c2.018-0.921,3.627-2.033,4.845-3.333
				c1.21-1.298,1.818-2.573,1.818-3.83c0-2.51-2.31-3.768-6.912-3.768c-3.011,0-6.429,0.48-10.235,1.441
				c-3.814,0.964-8.861,2.701-15.148,5.217c-3.938,1.593-6.724,3.079-8.356,4.458c-1.629,1.387-2.446,2.704-2.446,3.964
				c0,1.592,1.335,3.097,4.022,4.522c0.834,0.416,2.214,0.962,4.145,1.634l14.326,4.773c4.351,1.423,7.619,2.682,9.799,3.771
				c6.618,3.437,9.934,7.203,9.934,11.308c0,2.852-1.555,5.783-4.654,8.796c-3.688,3.605-9.386,7.249-17.089,10.937
				c-2.345,1.086-5.176,1.922-8.479,2.513c-3.312,0.583-6.52,0.882-9.612,0.882c-7.547,0-14.203-1.153-19.987-3.458
				c-5.775-2.304-8.666-5.174-8.666-8.608c0-2.428,1.638-4.816,4.898-7.162c3.768-2.679,9.429-5.191,16.973-7.54
				c2.089-0.672,4.771-1.34,8.039-2.012c0.832-0.164,1.881-0.374,3.143-0.625l4.146-0.756l1.257,6.157l-4.772,1.007
				c-1.763,0.418-3.142,0.711-4.153,0.88c-3.015,0.671-5.489,1.339-7.413,2.007c-4.689,1.597-8.104,3.059-10.237,4.401
				c-2.139,1.339-3.211,2.557-3.211,3.643c0,1.679,1.951,2.997,5.849,3.957c3.898,0.962,8.483,1.449,13.763,1.449
				c3.432,0,6.425-0.169,8.978-0.505c2.559-0.333,4.799-0.966,6.729-1.892c5.867-2.509,10.141-4.981,12.812-7.413
				c2.352-2.098,3.521-4.149,3.521-6.163c0-2.685-2.217-5.153-6.653-7.422c-1.428-0.751-3.646-1.63-6.657-2.638l-14.336-4.25
				c-3.268-1.171-5.699-2.18-7.287-3.015c-4.854-2.682-7.285-5.575-7.285-8.672c0-2.18,1.129-4.315,3.389-6.412
				c2.688-2.516,6.807-4.963,12.379-7.35c5.57-2.389,10.724-4.149,15.458-5.279c4.729-1.133,8.943-1.698,12.631-1.698
				c4.604,0,8.185,0.753,10.742,2.264c2.554,1.504,3.833,3.518,3.833,6.029c0,1.928-0.752,3.896-2.264,5.905
				c-1.508,2.014-3.853,4.106-7.036,6.287c-1.006,0.668-3.226,1.629-6.664,2.886c-0.501,0.168-1.252,0.424-2.257,0.756l-3.522,1.256
				L958.729,1007.891z"/>
		</g>
	</g>
	<g display="inline">
		<path fill="#040205" d="M568.407,1142.715l-0.715,2.634c-1.548-0.116-3.097-0.208-4.643-0.27
			c-2.442-0.118-4.766-0.178-6.968-0.178c-3.691,0-8.692,0.148-15.004,0.446l0.536-2.634c5.238-1.073,8.202-2.235,8.887-3.485
			c0.386-0.625,0.789-2.425,1.205-5.4c0.417-2.977,0.714-5.658,0.894-8.039c-3.515-0.119-7.875-0.178-13.085-0.178
			c-2.323,0-4.271,0.059-5.85,0.178c-0.357,0.477-0.618,0.82-0.781,1.028c-0.165,0.208-0.396,0.503-0.692,0.894
			c-0.625,0.831-1.985,2.677-4.087,5.536c-2.098,2.856-3.191,4.361-3.281,4.51c-0.981,1.225-1.474,2.115-1.474,2.682
			c0,0.443,0.207,0.788,0.625,1.024c0.417,0.24,1.667,0.567,3.751,0.982c0.894,0.178,1.354,0.27,1.384,0.27l-0.76,2.635
			c-0.953-0.062-2.561-0.149-4.822-0.271c-2.321-0.118-4.213-0.178-5.672-0.178c-1.965,0-5.374,0.149-10.224,0.447l0.802-2.635
			c3.006-0.536,5.083-1.151,6.229-1.854c1.146-0.7,2.702-2.314,4.667-4.845c0.356-0.508,1.139-1.527,2.346-3.062
			c1.205-1.531,2.292-2.924,3.259-4.174c0.968-1.251,1.869-2.396,2.702-3.438l5.939-7.502c2.798-3.514,4.845-6.09,6.14-7.727
			c1.294-1.638,2.65-3.37,4.064-5.203c1.413-1.831,3.333-4.375,5.759-7.637c2.427-3.26,5.708-7.687,9.848-13.285
			c0.208-0.207,0.506-0.58,0.894-1.116c0.386-0.535,0.64-0.893,0.76-1.071h2.99c-0.028,0.478-0.17,2.062-0.423,4.757
			c-0.254,2.694-0.47,5.011-0.646,6.942c-0.209,1.816-0.447,4.048-0.715,6.699c-0.269,2.65-0.479,4.905-0.625,6.766
			c-0.15,1.861-0.334,4.312-0.559,7.347c-0.224,3.036-0.544,7.231-0.96,12.592c-0.417,6.729-0.625,10.569-0.625,11.524
			c0,0.653,0.137,1.168,0.402,1.537c0.269,0.374,0.989,0.771,2.166,1.185c1.176,0.417,2.88,0.848,5.114,1.295
			C568.05,1142.623,568.466,1142.715,568.407,1142.715z M536.791,1121.502h16.254l2.769-25.451l-0.178-0.181L536.791,1121.502z"/>
		<path fill="#040205" d="M614.401,1093.771l2.501,0.178c-1.549,4.199-2.829,7.77-3.842,10.716c3.722,0,7.16-0.058,10.315-0.175
			l0.358,0.801c-0.804,1.133-1.476,2.264-2.011,3.394c-2.531-0.235-5.79-0.327-9.778-0.266c-0.447,1.429-1.385,4.577-2.813,9.443
			c-1.428,4.868-2.628,9.14-3.596,12.816c-0.967,3.677-1.452,5.917-1.452,6.72c0,0.627,0.18,1.029,0.536,1.204
			c0.357,0.183,0.67,0.271,0.937,0.271c1.252,0,4.168-1.714,8.753-5.137l1.652,1.741c-2.589,2.501-5.432,4.911-8.528,7.234
			c-3.097,2.321-5.867,3.483-8.306,3.483c-2.175,0-3.262-1.072-3.262-3.218c0-0.653,0.171-1.681,0.515-3.081
			c0.342-1.398,0.707-2.748,1.095-4.038c0.387-1.298,0.759-2.524,1.116-3.687c0.177-0.626,0.408-1.394,0.692-2.301
			c0.282-0.907,0.631-2.056,1.049-3.438c0.415-1.385,1.161-3.871,2.234-7.46c1.07-3.586,1.903-6.407,2.499-8.459
			c0.089,0,0.312-0.731,0.671-2.188c-1.341,0-3.38,0.09-6.119,0.267l0.626-2.724c2.411-0.803,4.629-1.955,6.654-3.46
			C608.924,1100.911,611.424,1098.029,614.401,1093.771z"/>
		<path fill="#040205" d="M624.629,1116.101l-1.563-2.012c3.362-3.569,6.46-6.251,9.288-8.037c2.827-1.784,4.793-2.681,5.895-2.681
			c0.506,0,0.939,0.219,1.294,0.647c0.359,0.433,0.536,0.977,0.536,1.63c0,1.37-0.529,3.782-1.584,7.234
			c-1.06,3.454-2.078,6.444-3.061,8.975c-3.305,9.053-4.957,14.438-4.957,16.168c0,1.221,0.55,1.832,1.652,1.832
			c1.25,0,3.164-1.007,5.738-3.016c2.575-2.012,5.114-4.504,7.614-7.479c1.935-2.291,3.506-4.457,4.711-6.497
			c1.206-2.039,2.204-4.094,2.991-6.162c0.789-2.071,1.822-5.146,3.104-9.223l0.803-2.636c2.679-0.061,5.062-0.298,7.146-0.715
			c-0.06,0.149-1.095,3.46-3.104,9.938c-2.008,6.476-3.238,10.382-3.684,11.722c-0.924,3.275-1.772,6.073-2.544,8.396
			c-0.358,1.34-0.536,2.382-0.536,3.123c0,0.864,0.354,1.295,1.07,1.295c0.774,0,2.799-1.188,6.073-3.568
			c0.089-0.062,0.261-0.195,0.516-0.404c0.252-0.207,0.406-0.327,0.468-0.354l1.562,1.827c-2.888,2.892-5.425,5.077-7.613,6.565
			c-2.189,1.489-3.907,2.448-5.157,2.881s-2.205,0.648-2.859,0.648c-0.564,0-1.07-0.21-1.518-0.626
			c-0.448-0.416-0.67-0.939-0.67-1.562c0-1.01,0.229-2.345,0.692-3.997c0.46-1.652,1.109-3.587,1.942-5.804
			c0.833-2.221,1.963-5.116,3.394-8.688l-0.179-0.18c-4.048,5.657-8.351,10.547-12.905,14.67c-4.557,4.123-8.858,6.187-12.904,6.187
			c-0.896,0-1.699-0.293-2.413-0.873c-0.716-0.579-1.073-1.48-1.073-2.702c0-1.337,0.342-3.141,1.028-5.401
			c1.814-5.864,3.422-10.934,4.822-15.206c1.398-4.271,2.292-6.913,2.679-7.927c0.179-0.504,0.269-0.997,0.269-1.474
			c0-0.297-0.075-0.536-0.224-0.715s-0.387-0.268-0.713-0.268C629.793,1111.634,627.784,1113.124,624.629,1116.101z"/>
		<path fill="#040205" d="M715.415,1114.089h-2.101c-0.178-1.756-0.752-3.43-1.72-5.021c-0.967-1.593-2.776-2.39-5.425-2.39
			c-1.817,0-3.321,0.521-4.512,1.562c-1.189,1.043-1.785,2.319-1.785,3.839c0,0.686,0.161,1.377,0.49,2.076
			c0.329,0.701,0.953,1.571,1.875,2.614c0.923,1.039,2.203,2.337,3.841,3.884c2.41,2.319,4.235,4.489,5.47,6.498
			c1.236,2.009,1.854,4.023,1.854,6.051c0,2.175-0.724,4.265-2.167,6.274s-3.415,3.632-5.917,4.866
			c-2.5,1.234-5.224,1.854-8.173,1.854c-2.799,0-5.024-0.364-6.675-1.096c-1.651-0.728-3.237-1.674-4.756-2.834
			c1.577-2.858,2.859-5.492,3.839-7.906l1.162,0.312c0.447,1.937,0.909,3.217,1.384,3.84c0.805,1.016,1.936,1.84,3.395,2.48
			s2.919,0.959,4.377,0.959c2.142,0,3.854-0.564,5.136-1.698c1.28-1.13,1.92-2.603,1.92-4.421c0-1.219-0.47-2.604-1.407-4.152
			c-0.938-1.548-2.763-3.721-5.47-6.521c-2.472-2.647-4.126-4.658-4.957-6.028c-0.835-1.366-1.252-2.841-1.252-4.42
			c0-1.965,0.641-3.826,1.921-5.583c1.28-1.756,3.052-3.155,5.314-4.196c2.261-1.041,4.761-1.563,7.503-1.563
			c3.453,0,6.548,0.864,9.287,2.591c-0.209,0.654-0.565,1.846-1.071,3.575C716.291,1111.264,715.83,1112.778,715.415,1114.089z"/>
		<path fill="#040205" d="M743.904,1134.499l1.83,2.544c-7.501,6.104-13.486,9.155-17.951,9.155c-2.292,0-4.086-0.663-5.382-1.988
			c-1.292-1.324-2.164-2.904-2.611-4.733c-0.447-1.831-0.67-3.596-0.67-5.291c0-3.959,0.791-7.8,2.368-11.521
			s3.721-7.048,6.428-9.98c2.712-2.936,5.677-5.218,8.889-6.854c3.216-1.637,6.401-2.457,9.558-2.457
			c1.458,0,2.769,0.379,3.931,1.139c1.158,0.76,1.739,2.063,1.739,3.909c0,2.888-1.085,5.62-3.258,8.195
			c-2.175,2.573-4.689,4.502-7.548,5.78c-2.32,1.102-4.684,1.959-7.076,2.567c-2.398,0.611-4.758,1.096-7.079,1.451
			c0,0.12-0.097,0.888-0.292,2.299c-0.195,1.415-0.29,2.63-0.29,3.64c0,2.058,0.334,3.975,1.005,5.762
			c0.672,1.787,1.986,2.68,3.953,2.68C734.334,1140.793,738.486,1138.695,743.904,1134.499z M727.962,1123.244
			c7.083-1.25,11.783-3.253,14.089-6.005c2.308-2.754,3.46-5.234,3.46-7.438c0-2.023-0.935-3.038-2.813-3.038
			c-2.052,0-4.531,1.274-7.434,3.819C732.361,1113.129,729.927,1117.349,727.962,1123.244z"/>
		<path fill="#040205" d="M755.427,1115.831l-1.651-2.009c7.264-6.969,12.235-10.451,14.915-10.451c1.157,0,1.738,0.611,1.738,1.831
			c0,0.924-0.281,2.396-0.848,4.423c-0.566,2.023-1.31,4.382-2.231,7.078c-0.925,2.691-1.675,4.812-2.255,6.361
			c-0.583,1.551-1.094,2.857-1.541,3.929l0.18,0.181c2.5-4.438,4.835-8.343,7.01-11.722c2.172-3.379,3.998-5.915,5.472-7.614
			c1.472-1.695,2.782-2.865,3.93-3.506c1.146-0.641,2.358-0.961,3.641-0.961c0.894,0,1.993,0.312,3.304,0.938
			c-0.953,1.876-1.556,3.133-1.808,3.772c-0.256,0.643-0.783,2.032-1.586,4.178h-1.923c-0.416-0.864-0.968-1.297-1.65-1.297
			c-1.044,0-2.277,0.751-3.705,2.257c-1.432,1.505-2.764,3.161-3.999,4.979c-1.234,1.816-2.568,3.916-3.993,6.296
			c-1.908,3.099-3.292,5.618-4.156,7.569c-0.862,1.951-1.919,4.979-3.17,9.087c-0.476,1.697-0.876,2.947-1.207,3.751
			c-1.728,0-2.933,0.031-3.616,0.092c-0.685,0.059-1.843,0.238-3.483,0.533c0.508-1.605,1.67-5.252,3.483-10.938
			c1.817-5.688,3.351-10.593,4.603-14.714c1.25-4.126,1.872-6.484,1.872-7.082c0-1.04-0.37-1.562-1.112-1.562
			c-0.478,0-1.325,0.479-2.548,1.43c-1.22,0.952-2.009,1.606-2.368,1.965L755.427,1115.831z"/>
		<path fill="#040205" d="M787.62,1115.251l-1.827-1.609c1.965-2.378,4.091-4.688,6.384-6.92c2.292-2.23,4.242-3.351,5.85-3.351
			c1.134,0,1.992,0.729,2.591,2.188c0.773,2.265,1.162,6.236,1.162,11.924c0,3.426-0.18,8.66-0.536,15.72l-0.18,3.081l0.18,0.224
			c1.903-2.261,3.484-4.159,4.732-5.69c1.25-1.535,2.716-3.479,4.4-5.829c1.681-2.351,3.034-4.533,4.062-6.542
			c1.026-2.012,1.539-3.772,1.539-5.293c0-1.488-0.325-2.438-0.979-2.857c-0.654-0.416-1.432-0.654-2.325-0.715l-0.356-0.802
			c1.343-1.191,2.328-2.13,2.972-2.815c0.637-0.686,1.362-1.547,2.167-2.591c1.932,0.537,3.219,1.541,3.861,3.015
			c0.638,1.476,0.961,2.789,0.961,3.952c0,2.649-0.855,5.382-2.568,8.193c-1.713,2.813-4.116,6.113-7.216,9.891
			c-1.13,1.372-2.69,3.22-4.687,5.54c-1.996,2.321-4.041,4.628-6.141,6.92c-2.1,2.293-3.757,4.064-4.979,5.316h-2.592
			c0.479-4.735,0.812-9.52,1.009-14.358c0.191-4.838,0.289-8.224,0.289-10.159c0-2.438-0.121-4.896-0.355-7.367
			c-0.238-2.471-0.789-3.705-1.653-3.705c-0.597,0-1.614,0.656-3.058,1.962C788.879,1113.884,787.979,1114.775,787.62,1115.251z"/>
		<path fill="#040205" d="M840.939,1134.186l1.742,1.918c-2.708,2.593-5.568,4.923-8.572,6.99c-3.01,2.07-5.33,3.104-6.97,3.104
			c-0.653,0-1.232-0.256-1.736-0.761c-0.513-0.506-0.761-1.146-0.761-1.921c0-1.159,0.43-3.079,1.293-5.761l3.305-9.243
			c0.208-0.685,1.131-3.526,2.77-8.528c1.637-5.004,2.456-7.605,2.456-7.814c0-0.745-0.312-1.116-0.938-1.116
			c-0.444,0-1.192,0.38-2.233,1.136c-1.04,0.761-1.933,1.572-2.682,2.437l-1.206,1.206l-1.651-1.83
			c3.188-3.273,6.151-5.865,8.888-7.77c2.74-1.908,4.81-2.86,6.209-2.86c1.223,0,1.831,0.583,1.831,1.741
			c0,0.687-0.343,2.167-1.027,4.442c-0.685,2.278-1.569,5.069-2.656,8.373c-1.088,3.309-1.928,5.837-2.525,7.595
			c-0.773,2.021-1.605,4.435-2.497,7.233c-0.893,2.797-1.341,4.495-1.341,5.09c0,0.743,0.297,1.116,0.894,1.116
			c1.133,0,3.173-1.279,6.116-3.842c0.15-0.086,0.371-0.244,0.672-0.467C840.612,1134.431,840.822,1134.275,840.939,1134.186z
			 M844.602,1084.26c1.015,0,1.892,0.387,2.638,1.158c0.741,0.777,1.116,1.729,1.116,2.861c0,1.548-0.522,2.99-1.563,4.331
			c-1.043,1.339-2.233,2.007-3.573,2.007c-1.012,0-1.875-0.452-2.589-1.358c-0.715-0.91-1.071-1.928-1.071-3.062
			c0-0.981,0.217-1.911,0.646-2.791c0.433-0.879,1.036-1.622,1.811-2.232C842.785,1084.562,843.649,1084.26,844.602,1084.26z"/>
		<path fill="#040205" d="M872.69,1133.202l2.277,2.188c-1.577,1.577-3.251,3.119-5.023,4.622c-1.771,1.503-3.861,2.911-6.273,4.221
			c-2.41,1.312-4.747,1.966-7.011,1.966c-3.097,0-5.411-1.2-6.943-3.597c-1.534-2.395-2.3-5.039-2.3-7.927
			c0-3.81,0.751-7.63,2.256-11.454c1.501-3.826,3.519-7.227,6.052-10.202c2.526-2.977,5.351-5.331,8.461-7.058
			c3.108-1.727,6.244-2.591,9.397-2.591c1.847,0,3.356,0.208,4.532,0.625c1.177,0.419,2.481,0.999,3.907,1.742
			c-0.832,2.085-1.367,3.491-1.605,4.22c-0.237,0.729-0.626,2.166-1.158,4.31h-2.638c-0.774-4.584-2.754-6.877-5.938-6.877
			c-2.175,0-4.519,1.14-7.034,3.417c-2.517,2.278-4.627,5.312-6.341,9.108c-1.712,3.799-2.567,7.853-2.567,12.171
			c0,1.814,0.331,3.706,0.984,5.67c0.651,1.963,2.036,2.946,4.15,2.946C862.942,1140.703,867.213,1138.206,872.69,1133.202z"/>
		<path fill="#040205" d="M898.1,1134.186l1.741,1.918c-2.706,2.593-5.566,4.923-8.571,6.99c-3.01,2.07-5.329,3.104-6.969,3.104
			c-0.653,0-1.232-0.256-1.737-0.761c-0.511-0.506-0.761-1.146-0.761-1.921c0-1.159,0.431-3.079,1.292-5.761l3.307-9.243
			c0.207-0.685,1.129-3.526,2.77-8.528c1.634-5.004,2.454-7.605,2.454-7.814c0-0.745-0.312-1.116-0.935-1.116
			c-0.447,0-1.194,0.38-2.235,1.136c-1.04,0.761-1.933,1.572-2.681,2.437l-1.206,1.206l-1.652-1.83
			c3.188-3.273,6.15-5.865,8.887-7.77c2.742-1.908,4.812-2.86,6.209-2.86c1.224,0,1.83,0.583,1.83,1.741
			c0,0.687-0.342,2.167-1.024,4.442c-0.685,2.278-1.569,5.069-2.658,8.373c-1.087,3.309-1.928,5.837-2.524,7.595
			c-0.771,2.021-1.604,4.435-2.497,7.233c-0.894,2.797-1.34,4.495-1.34,5.09c0,0.743,0.297,1.116,0.895,1.116
			c1.13,0,3.171-1.279,6.115-3.842c0.149-0.086,0.37-0.244,0.673-0.467C897.771,1134.431,897.982,1134.275,898.1,1134.186z
			 M901.76,1084.26c1.015,0,1.896,0.387,2.639,1.158c0.741,0.777,1.115,1.729,1.115,2.861c0,1.548-0.521,2.99-1.562,4.331
			c-1.042,1.339-2.232,2.007-3.572,2.007c-1.012,0-1.876-0.452-2.588-1.358c-0.717-0.91-1.072-1.928-1.072-3.062
			c0-0.981,0.214-1.911,0.646-2.791c0.433-0.879,1.035-1.622,1.809-2.232C899.948,1084.563,900.811,1084.26,901.76,1084.26z"/>
		<path fill="#040205" d="M905.514,1131.816c0-3.897,0.773-7.604,2.321-11.116c1.548-3.515,3.588-6.579,6.119-9.2
			c2.529-2.62,5.247-4.629,8.149-6.027c2.899-1.399,5.603-2.102,8.105-2.102c3.005,0,5.336,0.887,6.987,2.657
			s2.763,3.789,3.327,6.051c0.564,2.265,0.85,4.363,0.85,6.296c0,3.812-0.754,7.392-2.255,10.741
			c-1.507,3.351-3.523,6.327-6.054,8.933c-2.531,2.604-5.267,4.614-8.218,6.029c-2.944,1.41-5.729,2.12-8.347,2.12
			c-3.814,0-6.597-1.489-8.354-4.467C906.392,1138.756,905.514,1135.452,905.514,1131.816z M912.658,1131.105
			c0,2.617,0.535,5.105,1.607,7.455c1.072,2.353,3.066,3.527,5.985,3.527c2.591,0,4.956-1.146,7.101-3.438
			c2.143-2.292,3.836-5.286,5.09-8.975c1.253-3.691,1.875-7.459,1.875-11.302c0-2.47-0.434-4.947-1.295-7.434
			c-0.864-2.485-2.812-3.729-5.85-3.729c-2.621,0-5.04,1.316-7.258,3.951c-2.217,2.635-3.982,5.857-5.292,9.669
			C913.312,1124.645,912.658,1128.067,912.658,1131.105z"/>
	</g>
	
		<linearGradient id="SVGID_7_" gradientUnits="userSpaceOnUse" x1="6188.4307" y1="1443.8027" x2="6522.0029" y2="1443.8027" gradientTransform="matrix(-0.8636 0.3878 -0.3586 -0.8002 6319.396 -333.7151)">
		<stop  offset="0" style="stop-color:#DBBF5C"/>
		<stop  offset="0.2752" style="stop-color:#E8CB82"/>
		<stop  offset="0.5298" style="stop-color:#AC8536"/>
		<stop  offset="0.7525" style="stop-color:#B99C4E"/>
		<stop  offset="1" style="stop-color:#AC8536"/>
	</linearGradient>
	<path display="inline" fill="url(#SVGID_7_)" d="M421.992,943.761c0,0-218.274,21.922-249.477,78.778
		c0,0-7.768,13.328-1.919,19.707c15.141,16.515,33.058,5.104,33.058,5.104s-34.09,2.388-25.917-21.889
		c4.625-13.763,28.931-36.61,132.184-58.083c103.259-21.471,102.854-13.41,158.315-32.192
		C468.236,935.188,459.71,938.001,421.992,943.761z"/>
	
		<linearGradient id="SVGID_8_" gradientUnits="userSpaceOnUse" x1="5217.7705" y1="932.8867" x2="5580.9023" y2="932.8867" gradientTransform="matrix(1.0031 -0.4505 0.5348 1.193 -4812.1792 2212.968)">
		<stop  offset="0" style="stop-color:#DBBF5C"/>
		<stop  offset="0.2752" style="stop-color:#E8CB82"/>
		<stop  offset="0.5298" style="stop-color:#AC8536"/>
		<stop  offset="0.7525" style="stop-color:#B99C4E"/>
		<stop  offset="1" style="stop-color:#AC8536"/>
	</linearGradient>
	<path display="inline" fill="url(#SVGID_8_)" d="M989.3,925.768c0,0,265.87-4.614,296.841-82.399c0,0,7.812-18.181-0.09-28.062
		c-20.457-25.57-40.854-11.396-40.854-11.396s41.188,0.768,34.231,34.613c-3.936,19.193-30.698,49.003-153.701,67.127
		c-123.005,18.115-159.114,6.598-224.289,26.736C901.438,932.388,944.111,929.396,989.3,925.768z"/>
</g>
</svg>
